<?xml version="1.0" encoding="UTF-8" standalone="no"?><!DOCTYPE svg PUBLIC "-//W3C//DTD SVG 1.1//EN" "http://www.w3.org/Graphics/SVG/1.1/DTD/svg11.dtd"><svg width="100%" height="100%" viewBox="0 0 742 748" version="1.1" xmlns="http://www.w3.org/2000/svg" xmlns:xlink="http://www.w3.org/1999/xlink" xml:space="preserve" xmlns:serif="http://www.serif.com/" style="fill-rule:evenodd;clip-rule:evenodd;stroke-linejoin:round;stroke-miterlimit:2;"><g><path d="M260.09,102.393l8.655,-2.556l-2.758,-9.339c2.12,1.727 10.94,8.533 23.809,4.733c16.856,-4.978 25.128,-21.412 19.78,-39.52c-5.38,-18.222 -20.717,-27.809 -37.459,-22.865c-12.413,3.666 -16.779,13.622 -17.693,17.235l-9.652,-32.686l-8.997,2.657l24.315,82.341Zm-0.021,-31.939c-4.339,-14.692 2.284,-25.81 13.445,-29.105c11.616,-3.431 22.869,3.647 26.871,17.2c4.069,13.78 -2.157,25.401 -13.546,28.764c-12.3,3.632 -23.105,-4.445 -26.77,-16.859Z" style="fill-rule:nonzero;"/><path d="M330.516,84.809l9.311,-1.152l-7.589,-61.282l-9.31,1.153l7.588,61.281Zm-11.311,-76.855c0.452,3.654 3.631,6.132 7.167,5.694c3.653,-0.452 6.131,-3.631 5.679,-7.284c-0.438,-3.536 -3.617,-6.014 -7.27,-5.561c-3.536,0.437 -6.014,3.616 -5.576,7.151Z" style="fill-rule:nonzero;"/><path d="M353.009,50.526c-0.716,18.986 11.723,32.645 30.472,33.352c14.003,0.527 22.358,-6.763 26.018,-12.448l-6,-4.742c-3.124,4.041 -9.144,9.281 -19.586,8.887c-12.816,-0.482 -21.759,-9.138 -21.359,-22.907l49.483,1.864c0.164,-1.182 0.213,-2.488 0.226,-2.844c0.698,-18.511 -9.965,-31.985 -28.121,-32.669c-16.376,-0.617 -30.391,11.808 -31.133,31.507Zm10.283,-4.842c1.15,-11.602 10.459,-18.976 20.546,-18.596c10.205,0.385 18.859,7.247 18.97,20.085l-39.516,-1.489Z" style="fill-rule:nonzero;"/><path d="M466.255,31.946c-8.251,-2.243 -16.174,0.647 -20.504,5.254l2.338,-8.594l-8.938,-2.431l-16.204,59.586l9.052,2.462l9.847,-36.21c2.68,-9.855 10.821,-14.901 19.988,-12.409c8.136,2.213 12.536,9.563 9.95,19.074l-10.221,37.585l9.052,2.461l10.128,-37.241c3.677,-13.521 -0.623,-25.766 -14.488,-29.537Z" style="fill-rule:nonzero;"/><path d="M544.302,66.029l-6.218,-3.716l-4.082,6.829l6.218,3.717l-16.754,28.03c-7.129,11.926 -6.685,21.599 3.916,27.935c2.752,1.645 5.075,2.619 5.075,2.619l4.265,-7.135c-0,-0 -1.284,-0.63 -2.303,-1.239c-6.932,-4.143 -8.384,-8.193 -2.475,-18.08l16.329,-27.317l11.619,6.945l4.083,-6.829l-11.62,-6.946l6.641,-11.11l-8.053,-4.813l-6.641,11.11Z" style="fill-rule:nonzero;"/><path d="M551.162,120.006c-7.746,9.157 -5.652,22.127 4.684,30.87c6.346,5.369 12.329,6.386 17.155,5.646l-2.559,4.68l6.165,5.215l26.306,-31.098c8.513,-10.063 9.494,-21.521 -3.38,-32.411c-7.978,-6.749 -16.918,-8.867 -21.779,-9.557l-1.546,7.712c5.041,0.844 11.52,2.746 17.322,7.655c6.981,5.905 8.203,13.471 2.604,20.089l-4.908,5.803c-0.217,-3.606 -2.833,-9.707 -8.817,-14.768c-10.607,-8.973 -23.654,-8.811 -31.247,0.164Zm7.33,6.045c4.678,-5.53 12.83,-5.789 19.992,0.269c7.072,5.982 8.566,13.778 3.581,19.671c-4.832,5.712 -13.088,5.727 -19.979,-0.101c-7.253,-6.136 -8.195,-14.399 -3.594,-19.839Z" style="fill-rule:nonzero;"/><path d="M654.361,161.718c-5.132,-6.838 -13.161,-9.424 -19.407,-8.448l7.123,-5.346l-5.56,-7.408l-49.386,37.068l5.632,7.503l30.011,-22.526c8.168,-6.131 17.692,-5.113 23.395,2.485c5.061,6.743 4.019,15.246 -3.863,21.162l-31.151,23.382l5.631,7.503l30.866,-23.168c11.207,-8.412 15.335,-20.716 6.709,-32.207Z" style="fill-rule:nonzero;"/><path d="M638.614,257.78l2.637,8.632l9.312,-2.845c-1.706,2.135 -8.429,11.018 -4.509,23.852c5.135,16.808 21.646,24.925 39.704,19.409c18.171,-5.552 27.613,-20.978 22.513,-37.672c-3.782,-12.379 -13.779,-16.651 -17.4,-17.531l32.594,-9.958l-2.741,-8.972l-82.11,25.085Zm31.937,-0.32c14.651,-4.476 25.83,2.042 29.231,13.172c3.539,11.584 -3.434,22.902 -16.948,27.031c-13.742,4.198 -25.42,-1.919 -28.89,-13.276c-3.747,-12.265 4.228,-23.145 16.607,-26.927Z" style="fill-rule:nonzero;"/><path d="M656.864,328.086l1.238,9.3l61.21,-8.152l-1.238,-9.299l-61.21,8.151Zm76.748,-12.017c-3.649,0.486 -6.098,3.687 -5.628,7.219c0.486,3.649 3.687,6.097 7.336,5.611c3.532,-0.47 5.981,-3.671 5.495,-7.32c-0.471,-3.531 -3.672,-5.98 -7.203,-5.51Z" style="fill-rule:nonzero;"/><path d="M691.356,350.295c-18.993,-0.544 -32.539,12.017 -33.076,30.772c-0.401,14.007 6.965,22.296 12.683,25.905l4.687,-6.044c-4.07,-3.086 -9.363,-9.059 -9.064,-19.505c0.367,-12.819 8.941,-21.84 22.714,-21.565l-1.417,49.499c1.183,0.153 2.489,0.19 2.845,0.2c18.517,0.53 31.894,-10.254 32.414,-28.415c0.469,-16.381 -12.082,-30.283 -31.786,-30.847Zm4.934,10.239c11.612,1.045 19.069,10.287 18.78,20.377c-0.292,10.208 -7.075,18.924 -19.912,19.15l1.132,-39.527Z" style="fill-rule:nonzero;"/><path d="M710.95,463.386c2.17,-8.27 -0.792,-16.167 -5.437,-20.455l8.615,2.26l2.35,-8.959l-59.728,-15.671l-2.381,9.074l36.297,9.523c9.878,2.592 14.997,10.687 12.586,19.876c-2.14,8.155 -9.45,12.621 -18.983,10.12l-37.675,-9.885l-2.381,9.074l37.33,9.795c13.554,3.556 25.76,-0.853 29.407,-14.752Z" style="fill-rule:nonzero;"/><path d="M677.58,541.712l3.66,-6.251l-6.866,-4.02l-3.66,6.251l-28.182,-16.5c-11.99,-7.019 -21.658,-6.488 -27.898,4.17c-1.62,2.767 -2.572,5.099 -2.572,5.099l7.173,4.2c0,-0 0.618,-1.29 1.218,-2.315c4.079,-6.968 8.116,-8.458 18.057,-2.638l27.464,16.08l-6.84,11.682l6.866,4.02l6.84,-11.682l11.17,6.54l4.74,-8.096l-11.17,-6.54Z" style="fill-rule:nonzero;"/><path d="M623.688,549.032c-9.229,-7.661 -22.179,-5.447 -30.826,4.969c-5.309,6.396 -6.271,12.388 -5.487,17.207l-4.702,-2.516l-5.158,6.213l31.339,26.017c10.142,8.42 21.608,9.295 32.379,-3.679c6.674,-8.04 8.71,-16.999 9.355,-21.866l-7.727,-1.476c-0.796,5.05 -2.639,11.545 -7.493,17.393c-5.841,7.035 -13.395,8.327 -20.065,2.79l-5.847,-4.855c3.603,-0.25 9.679,-2.922 14.685,-8.952c8.875,-10.69 8.592,-23.735 -0.453,-31.245Zm-5.977,7.386c5.573,4.627 5.908,12.776 -0.084,19.994c-5.917,7.126 -13.698,8.692 -19.637,3.762c-5.757,-4.779 -5.848,-13.035 -0.083,-19.979c6.068,-7.309 14.322,-8.328 19.804,-3.777Z" style="fill-rule:nonzero;"/><path d="M518.174,668.546c7.525,11.254 19.058,15.256 30.509,7.6c7.305,-4.885 11.247,-12.235 10.215,-20.401c6.131,4.042 14.069,4.163 21.769,-0.985c7.107,-4.752 9.699,-12.627 8.703,-18.39c-0,0 1.782,2.666 4.95,7.404l7.7,-5.148l-34.322,-51.333l-7.799,5.214l20.792,31.096c5.808,8.687 4.009,18.175 -2.802,22.729c-7.206,4.819 -15.048,2.919 -20.526,-5.274l-21.649,-32.379l-7.799,5.214l20.593,30.8c6.403,9.575 4.406,18.339 -2.801,23.157c-7.601,5.082 -14.85,2.787 -21.318,-6.888l-20.66,-30.898l-7.798,5.214l22.243,33.268Z" style="fill-rule:nonzero;"/><path d="M480.53,640.357l-8.667,2.516l2.714,9.351c-2.112,-1.736 -10.9,-8.583 -23.787,-4.843c-16.878,4.898 -25.227,21.293 -19.965,39.426c5.296,18.248 20.587,27.906 37.352,23.041c12.431,-3.608 16.842,-13.544 17.774,-17.152l9.498,32.73l9.01,-2.614l-23.929,-82.455Zm-0.128,31.939c4.269,14.712 -2.405,25.799 -13.582,29.043c-11.632,3.375 -22.852,-3.755 -26.79,-17.326c-4.005,-13.8 2.276,-25.391 13.68,-28.701c12.317,-3.574 23.084,4.553 26.692,16.984Z" style="fill-rule:nonzero;"/><path d="M410.045,657.608l-9.316,1.11l7.307,61.316l9.315,-1.11l-7.306,-61.316Zm10.958,76.906c-0.436,-3.655 -3.603,-6.148 -7.14,-5.726c-3.656,0.435 -6.148,3.602 -5.713,7.258c0.422,3.537 3.589,6.03 7.244,5.594c3.538,-0.421 6.031,-3.588 5.609,-7.126Z" style="fill-rule:nonzero;"/><path d="M387.169,691.799c0.815,-18.982 -11.551,-32.707 -30.296,-33.512c-14,-0.601 -22.393,6.646 -26.083,12.311l5.975,4.773c3.145,-4.025 9.192,-9.232 19.633,-8.784c12.813,0.55 21.71,9.253 21.238,23.02l-49.473,-2.125c-0.17,1.182 -0.226,2.487 -0.241,2.843c-0.795,18.507 9.796,32.037 27.948,32.817c16.373,0.703 30.453,-11.648 31.299,-31.343Zm-10.308,4.787c-1.212,11.597 -10.56,18.921 -20.644,18.488c-10.203,-0.438 -18.821,-7.346 -18.864,-20.184l39.508,1.696Zm-15.313,32.742l-8.186,-0.351l-11.283,16.393l10.322,0.444l9.147,-16.486Z" style="fill-rule:nonzero;"/><path d="M273.837,709.786c8.238,2.287 16.177,-0.562 20.53,-5.146l-2.382,8.581l8.925,2.478l16.515,-59.501l-9.04,-2.509l-10.035,36.158c-2.732,9.841 -10.899,14.845 -20.053,12.304c-8.124,-2.255 -12.486,-9.627 -9.85,-19.124l10.417,-37.532l-9.04,-2.509l-10.321,37.188c-3.748,13.503 0.488,25.77 14.334,29.612Z" style="fill-rule:nonzero;"/><path d="M195.954,675.288l6.198,3.749l4.118,-6.807l-6.198,-3.75l16.903,-27.941c7.191,-11.888 6.799,-21.563 -3.768,-27.955c-2.744,-1.66 -5.062,-2.646 -5.062,-2.646l-4.302,7.113c-0,-0 1.281,0.636 2.297,1.25c6.909,4.18 8.34,8.238 2.378,18.093l-16.473,27.231l-11.583,-7.007l-4.118,6.807l11.583,7.007l-6.699,11.075l8.026,4.856l6.7,-11.075Z" style="fill-rule:nonzero;"/><path d="M189.554,621.401c7.788,-9.121 5.755,-22.1 -4.54,-30.891c-6.322,-5.398 -12.3,-6.443 -17.129,-5.725l2.58,-4.668l-6.141,-5.243l-26.449,30.975c-8.559,10.024 -9.594,21.477 3.23,32.427c7.947,6.786 16.877,8.945 21.734,9.658l1.583,-7.706c-5.038,-0.866 -11.508,-2.799 -17.287,-7.734c-6.954,-5.938 -8.14,-13.509 -2.511,-20.101l4.935,-5.78c0.2,3.606 2.787,9.719 8.748,14.809c10.566,9.022 23.613,8.92 31.247,-0.021Zm-7.301,-6.078c-4.704,5.508 -12.857,5.73 -19.991,-0.362c-7.044,-6.015 -8.502,-13.817 -3.489,-19.687c4.858,-5.69 13.114,-5.666 19.977,0.194c7.225,6.169 8.129,14.436 3.503,19.855Z" style="fill-rule:nonzero;"/><path d="M86.52,579.174c5.1,6.863 13.117,9.486 19.367,8.54l-7.148,5.312l5.525,7.435l49.561,-36.835l-5.596,-7.53l-30.118,22.385c-8.196,6.091 -17.716,5.029 -23.383,-2.596c-5.029,-6.767 -3.947,-15.265 3.964,-21.144l31.261,-23.234l-5.596,-7.53l-30.975,23.022c-11.247,8.359 -15.433,20.643 -6.862,32.175Z" style="fill-rule:nonzero;"/><path d="M102.729,483.211l-2.596,-8.644l-9.326,2.802c1.716,-2.128 8.481,-10.98 4.62,-23.831c-5.056,-16.832 -21.529,-25.027 -39.612,-19.595c-18.196,5.466 -27.711,20.848 -22.689,37.566c3.724,12.396 13.701,16.715 17.318,17.612l-32.64,9.805l2.698,8.985l82.227,-24.7Zm-31.939,0.17c-14.671,4.407 -25.82,-2.163 -29.168,-13.308c-3.485,-11.601 3.541,-22.886 17.074,-26.952c13.762,-4.134 25.411,2.038 28.827,13.411c3.69,12.283 -4.336,23.126 -16.733,26.849Z" style="fill-rule:nonzero;"/><path d="M84.812,412.844l-1.196,-9.305l-61.246,7.87l1.196,9.304l61.246,-7.869Zm-76.802,11.664c3.651,-0.469 6.115,-3.659 5.661,-7.192c-0.47,-3.652 -3.66,-6.115 -7.311,-5.646c-3.533,0.454 -5.997,3.644 -5.528,7.295c0.454,3.534 3.644,5.997 7.178,5.543Z" style="fill-rule:nonzero;"/><path d="M50.424,390.493c18.99,0.63 32.592,-11.87 33.214,-30.622c0.464,-14.005 -6.864,-22.327 -12.565,-25.962l-4.715,6.022c4.056,3.105 9.322,9.101 8.976,19.546c-0.425,12.818 -9.04,21.8 -22.811,21.462l1.641,-49.492c-1.183,-0.158 -2.489,-0.201 -2.845,-0.213c-18.515,-0.614 -31.94,10.11 -32.542,28.269c-0.543,16.378 11.945,30.337 31.647,30.99Zm-4.888,-10.261c-11.607,-1.098 -19.023,-10.374 -18.688,-20.462c0.338,-10.207 7.161,-18.892 19.999,-19.06l-1.311,39.522Z" style="fill-rule:nonzero;"/><path d="M31.337,277.323c-2.207,8.261 0.72,16.171 5.345,20.48l-8.604,-2.299l-2.391,8.949l59.658,15.938l2.421,-9.064l-36.253,-9.685c-9.867,-2.636 -14.95,-10.754 -12.498,-19.932c2.176,-8.146 9.506,-12.579 19.029,-10.035l37.63,10.053l2.421,-9.063l-37.286,-9.961c-13.538,-3.617 -25.763,0.737 -29.472,14.619Z" style="fill-rule:nonzero;"/><path d="M106.23,183.974l64.013,-67.437l-5.857,-5.56l-64.013,67.438l5.857,5.559Z" style="fill-rule:nonzero;"/></g><circle cx="370.934" cy="371.118" r="142.79" style="fill:#d2dde4;"/></svg>